<svg width="35" height="35" viewBox="0 0 35 35" fill="none" xmlns="http://www.w3.org/2000/svg">
<g clip-path="url(#clip0_309_1101)">
<path d="M17.5 0C13.1914 0.00307179 9.03602 1.59924 5.83333 4.48146V1.45833C5.83333 1.07156 5.67969 0.700627 5.4062 0.427136C5.13271 0.153645 4.76177 0 4.375 0C3.98823 0 3.61729 0.153645 3.3438 0.427136C3.07031 0.700627 2.91667 1.07156 2.91667 1.45833V5.83333C2.91667 6.99366 3.3776 8.10645 4.19807 8.92693C5.01855 9.7474 6.13134 10.2083 7.29167 10.2083H11.6667C12.0534 10.2083 12.4244 10.0547 12.6979 9.7812C12.9714 9.50771 13.125 9.13677 13.125 8.75C13.125 8.36323 12.9714 7.99229 12.6979 7.7188C12.4244 7.44531 12.0534 7.29167 11.6667 7.29167H7.29167C7.24249 7.28438 7.19379 7.27415 7.14583 7.26104C9.52222 4.86766 12.6556 3.37324 16.0111 3.03285C19.3667 2.69246 22.7363 3.52721 25.5449 5.39461C28.3535 7.26201 30.427 10.0463 31.4113 13.2722C32.3957 16.4981 32.2299 19.9657 30.9423 23.083C29.6547 26.2003 27.3251 28.7741 24.3512 30.3651C21.3772 31.956 17.9433 32.4655 14.6356 31.8066C11.3278 31.1476 8.35127 29.3611 6.21404 26.7519C4.07681 24.1428 2.91137 20.8727 2.91667 17.5C2.91667 17.1132 2.76302 16.7423 2.48953 16.4688C2.21604 16.1953 1.84511 16.0417 1.45833 16.0417C1.07156 16.0417 0.700627 16.1953 0.427136 16.4688C0.153645 16.7423 0 17.1132 0 17.5C0 20.9612 1.02636 24.3446 2.94928 27.2225C4.87221 30.1003 7.60533 32.3434 10.803 33.6679C14.0007 34.9924 17.5194 35.339 20.9141 34.6637C24.3087 33.9885 27.4269 32.3218 29.8744 29.8744C32.3218 27.4269 33.9885 24.3087 34.6637 20.9141C35.339 17.5194 34.9924 14.0007 33.6679 10.803C32.3434 7.60533 30.1003 4.87221 27.2225 2.94928C24.3446 1.02636 20.9612 0 17.5 0V0Z" fill="white"/>
<path d="M17.4999 8.75C17.1131 8.75 16.7422 8.90365 16.4687 9.17714C16.1952 9.45063 16.0416 9.82156 16.0416 10.2083V17.5C16.0416 17.8867 16.1953 18.2576 16.4689 18.531L20.8439 22.906C21.1189 23.1717 21.4873 23.3187 21.8696 23.3154C22.252 23.312 22.6178 23.1587 22.8882 22.8883C23.1586 22.6179 23.3119 22.2521 23.3153 21.8698C23.3186 21.4874 23.1716 21.119 22.9059 20.844L18.9582 16.8963V10.2083C18.9582 9.82156 18.8046 9.45063 18.5311 9.17714C18.2576 8.90365 17.8867 8.75 17.4999 8.75Z" fill="white"/>
</g>
<defs>
<clipPath id="clip0_309_1101">
<rect width="35" height="35" fill="white"/>
</clipPath>
</defs>
</svg>
