<svg width="264" height="68" viewBox="0 0 264 68" fill="none" xmlns="http://www.w3.org/2000/svg">
<path d="M0.765625 67V25.375H1.60938L13.9844 55.0938V67H0.765625ZM0.765625 10V1.375H11.0781L28.9844 44.7812L38.9219 22.375H39.8594V52.8438L33.5781 67H24.4844L0.765625 10ZM44.9219 67V1.375H58.1406V67H44.9219ZM67.6406 48.7188V17.875C67.6406 14.5625 69.0469 11.1875 71.8594 7.75C75.6094 3.25 80.3594 0.96875 86.1094 0.90625V14.125C83.5469 14.1875 81.8594 15.625 81.0469 18.4375C80.9219 18.875 80.8594 19.1875 80.8594 19.375V48.7188C80.8594 51.2812 82.2656 53.0312 85.0781 53.9688C85.5156 54.0938 85.8281 54.1562 86.0156 54.1562V67.4688C82.4531 67.4688 78.8906 66.1875 75.3281 63.625C70.2656 59.875 67.7031 54.9062 67.6406 48.7188ZM91.1719 67.4688V54.1562C92.1719 54.1562 93.2969 53.625 94.5469 52.5625C95.7344 51.5 96.3594 50.2188 96.4219 48.7188V19.375C96.4219 18.25 95.8906 17.0625 94.8281 15.8125C93.8281 14.75 92.6094 14.1875 91.1719 14.125V0.90625C97.4844 0.90625 102.547 3.625 106.359 9.0625C108.547 12.1875 109.641 15.125 109.641 17.875V48.7188C109.641 55.6562 106.547 60.9688 100.359 64.6562C97.1094 66.5312 94.0469 67.4688 91.1719 67.4688ZM118.766 48.7188V17.875C118.766 14.5625 120.172 11.1875 122.984 7.75C126.734 3.25 131.484 0.96875 137.234 0.90625V14.125C134.672 14.1875 132.984 15.625 132.172 18.4375C132.047 18.875 131.984 19.1875 131.984 19.375V48.7188C131.984 51.2812 133.391 53.0312 136.203 53.9688C136.641 54.0938 136.953 54.1562 137.141 54.1562V67.4688C133.578 67.4688 130.016 66.1875 126.453 63.625C121.391 59.875 118.828 54.9062 118.766 48.7188ZM142.297 67.4688V54.1562C143.297 54.1562 144.422 53.625 145.672 52.5625C146.859 51.5 147.484 50.2188 147.547 48.7188V19.375C147.547 18.25 147.016 17.0625 145.953 15.8125C144.953 14.75 143.734 14.1875 142.297 14.125V0.90625C148.609 0.90625 153.672 3.625 157.484 9.0625C159.672 12.1875 160.766 15.125 160.766 17.875V48.7188C160.766 55.6562 157.672 60.9688 151.484 64.6562C148.234 66.5312 145.172 67.4688 142.297 67.4688ZM170.266 67V1.375H183.484V67H170.266ZM188.547 40.1875V28.4688H189.766C193.766 28.4688 196.328 26.8438 197.453 23.5938C197.703 22.7812 197.828 21.9375 197.828 21.0625C197.828 17.75 196.266 15.5312 193.141 14.4062C192.141 14.0312 191.016 13.8438 189.766 13.8438H188.547V1.375H190.609C198.797 1.5 204.547 4.40625 207.859 10.0938C209.422 12.7812 210.203 15.8125 210.203 19.1875C210.141 25.625 208.016 30.5625 203.828 34C206.953 36 208.953 39.625 209.828 44.875C209.891 45.5 209.953 46.0938 210.016 46.6562L211.609 67H199.422L198.016 50.3125C197.516 45.3125 196.078 42.2188 193.703 41.0312C192.578 40.5312 191.203 40.25 189.578 40.1875H188.547ZM218.672 67L230.766 12.4375H232.172L237.797 38.6875L231.609 67H218.672ZM238.641 59.0312L241.453 46.0938H244.828L234.891 1.375H247.922L263.391 67H250.266L248.391 59.0312H238.641Z" fill="#0A3E66"/>
</svg>
