<svg width="328" height="26" viewBox="0 0 328 26" fill="none" xmlns="http://www.w3.org/2000/svg">
<path d="M10.304 2.272V4.048H3.032V9.688H8.936V11.464H3.032V19H0.848V2.272H10.304ZM16.0698 3.712C15.6538 3.712 15.3018 3.568 15.0138 3.28C14.7258 2.992 14.5818 2.64 14.5818 2.224C14.5818 1.808 14.7258 1.456 15.0138 1.168C15.3018 0.879999 15.6538 0.735999 16.0698 0.735999C16.4698 0.735999 16.8058 0.879999 17.0778 1.168C17.3658 1.456 17.5098 1.808 17.5098 2.224C17.5098 2.64 17.3658 2.992 17.0778 3.28C16.8058 3.568 16.4698 3.712 16.0698 3.712ZM17.1258 5.848V19H14.9418V5.848H17.1258ZM29.256 5.608C30.856 5.608 32.152 6.096 33.144 7.072C34.136 8.032 34.632 9.424 34.632 11.248V19H32.472V11.56C32.472 10.248 32.144 9.248 31.488 8.56C30.832 7.856 29.936 7.504 28.8 7.504C27.648 7.504 26.728 7.864 26.04 8.584C25.368 9.304 25.032 10.352 25.032 11.728V19H22.848V5.848H25.032V7.72C25.464 7.048 26.048 6.528 26.784 6.16C27.536 5.792 28.36 5.608 29.256 5.608ZM39.3836 12.376C39.3836 11.032 39.6556 9.856 40.1996 8.848C40.7436 7.824 41.4876 7.032 42.4316 6.472C43.3916 5.912 44.4636 5.632 45.6476 5.632C46.6716 5.632 47.6236 5.872 48.5036 6.352C49.3836 6.816 50.0556 7.432 50.5196 8.2V1.24H52.7276V19H50.5196V16.528C50.0876 17.312 49.4476 17.96 48.5996 18.472C47.7516 18.968 46.7596 19.216 45.6236 19.216C44.4556 19.216 43.3916 18.928 42.4316 18.352C41.4876 17.776 40.7436 16.968 40.1996 15.928C39.6556 14.888 39.3836 13.704 39.3836 12.376ZM50.5196 12.4C50.5196 11.408 50.3196 10.544 49.9196 9.808C49.5196 9.072 48.9756 8.512 48.2876 8.128C47.6156 7.728 46.8716 7.528 46.0556 7.528C45.2396 7.528 44.4956 7.72 43.8236 8.104C43.1516 8.488 42.6156 9.048 42.2156 9.784C41.8156 10.52 41.6156 11.384 41.6156 12.376C41.6156 13.384 41.8156 14.264 42.2156 15.016C42.6156 15.752 43.1516 16.32 43.8236 16.72C44.4956 17.104 45.2396 17.296 46.0556 17.296C46.8716 17.296 47.6156 17.104 48.2876 16.72C48.9756 16.32 49.5196 15.752 49.9196 15.016C50.3196 14.264 50.5196 13.392 50.5196 12.4ZM78.1448 5.848L70.2248 25.192H67.9688L70.5608 18.856L65.2568 5.848H67.6808L71.8088 16.504L75.8888 5.848H78.1448ZM88.0762 19.216C86.8442 19.216 85.7242 18.936 84.7162 18.376C83.7242 17.816 82.9402 17.024 82.3642 16C81.8042 14.96 81.5242 13.76 81.5242 12.4C81.5242 11.056 81.8122 9.872 82.3882 8.848C82.9802 7.808 83.7802 7.016 84.7882 6.472C85.7962 5.912 86.9242 5.632 88.1722 5.632C89.4202 5.632 90.5482 5.912 91.5562 6.472C92.5642 7.016 93.3562 7.8 93.9322 8.824C94.5242 9.848 94.8202 11.04 94.8202 12.4C94.8202 13.76 94.5162 14.96 93.9082 16C93.3162 17.024 92.5082 17.816 91.4842 18.376C90.4602 18.936 89.3242 19.216 88.0762 19.216ZM88.0762 17.296C88.8602 17.296 89.5962 17.112 90.2842 16.744C90.9722 16.376 91.5242 15.824 91.9402 15.088C92.3722 14.352 92.5882 13.456 92.5882 12.4C92.5882 11.344 92.3802 10.448 91.9642 9.712C91.5482 8.976 91.0042 8.432 90.3322 8.08C89.6602 7.712 88.9322 7.528 88.1482 7.528C87.3482 7.528 86.6122 7.712 85.9402 8.08C85.2842 8.432 84.7562 8.976 84.3562 9.712C83.9562 10.448 83.7562 11.344 83.7562 12.4C83.7562 13.472 83.9482 14.376 84.3322 15.112C84.7322 15.848 85.2602 16.4 85.9162 16.768C86.5722 17.12 87.2922 17.296 88.0762 17.296ZM111.356 5.848V19H109.172V17.056C108.756 17.728 108.172 18.256 107.42 18.64C106.684 19.008 105.868 19.192 104.972 19.192C103.948 19.192 103.028 18.984 102.212 18.568C101.396 18.136 100.748 17.496 100.268 16.648C99.8038 15.8 99.5718 14.768 99.5718 13.552V5.848H101.732V13.264C101.732 14.56 102.06 15.56 102.716 16.264C103.372 16.952 104.268 17.296 105.404 17.296C106.572 17.296 107.492 16.936 108.164 16.216C108.836 15.496 109.172 14.448 109.172 13.072V5.848H111.356ZM119.227 7.984C119.611 7.232 120.155 6.648 120.859 6.232C121.579 5.816 122.451 5.608 123.475 5.608V7.864H122.899C120.451 7.864 119.227 9.192 119.227 11.848V19H117.043V5.848H119.227V7.984ZM141.747 7.648H138.987V19H136.803V7.648H135.099V5.848H136.803V4.912C136.803 3.44 137.179 2.368 137.931 1.696C138.699 1.008 139.923 0.663999 141.603 0.663999V2.488C140.643 2.488 139.963 2.68 139.563 3.064C139.179 3.432 138.987 4.048 138.987 4.912V5.848H141.747V7.648ZM147.421 3.712C147.005 3.712 146.653 3.568 146.365 3.28C146.077 2.992 145.933 2.64 145.933 2.224C145.933 1.808 146.077 1.456 146.365 1.168C146.653 0.879999 147.005 0.735999 147.421 0.735999C147.821 0.735999 148.157 0.879999 148.429 1.168C148.717 1.456 148.861 1.808 148.861 2.224C148.861 2.64 148.717 2.992 148.429 3.28C148.157 3.568 147.821 3.712 147.421 3.712ZM148.477 5.848V19H146.293V5.848H148.477ZM160.608 5.608C162.208 5.608 163.504 6.096 164.496 7.072C165.488 8.032 165.984 9.424 165.984 11.248V19H163.824V11.56C163.824 10.248 163.496 9.248 162.84 8.56C162.184 7.856 161.288 7.504 160.152 7.504C159 7.504 158.08 7.864 157.392 8.584C156.72 9.304 156.384 10.352 156.384 11.728V19H154.2V5.848H156.384V7.72C156.816 7.048 157.4 6.528 158.136 6.16C158.888 5.792 159.712 5.608 160.608 5.608ZM183.551 11.92C183.551 12.336 183.527 12.776 183.479 13.24H172.967C173.047 14.536 173.487 15.552 174.287 16.288C175.103 17.008 176.087 17.368 177.239 17.368C178.183 17.368 178.967 17.152 179.591 16.72C180.231 16.272 180.679 15.68 180.935 14.944H183.287C182.935 16.208 182.231 17.24 181.175 18.04C180.119 18.824 178.807 19.216 177.239 19.216C175.991 19.216 174.871 18.936 173.879 18.376C172.903 17.816 172.135 17.024 171.575 16C171.015 14.96 170.735 13.76 170.735 12.4C170.735 11.04 171.007 9.848 171.551 8.824C172.095 7.8 172.855 7.016 173.831 6.472C174.823 5.912 175.959 5.632 177.239 5.632C178.487 5.632 179.591 5.904 180.551 6.448C181.511 6.992 182.247 7.744 182.759 8.704C183.287 9.648 183.551 10.72 183.551 11.92ZM181.295 11.464C181.295 10.632 181.111 9.92 180.743 9.328C180.375 8.72 179.871 8.264 179.231 7.96C178.607 7.64 177.911 7.48 177.143 7.48C176.039 7.48 175.095 7.832 174.311 8.536C173.543 9.24 173.103 10.216 172.991 11.464H181.295ZM193.09 19.216C192.082 19.216 191.178 19.048 190.378 18.712C189.578 18.36 188.946 17.88 188.482 17.272C188.018 16.648 187.762 15.936 187.714 15.136H189.97C190.034 15.792 190.338 16.328 190.882 16.744C191.442 17.16 192.17 17.368 193.066 17.368C193.898 17.368 194.554 17.184 195.034 16.816C195.514 16.448 195.754 15.984 195.754 15.424C195.754 14.848 195.498 14.424 194.986 14.152C194.474 13.864 193.682 13.584 192.61 13.312C191.634 13.056 190.834 12.8 190.21 12.544C189.602 12.272 189.074 11.88 188.626 11.368C188.194 10.84 187.978 10.152 187.978 9.304C187.978 8.632 188.178 8.016 188.578 7.456C188.978 6.896 189.546 6.456 190.282 6.136C191.018 5.8 191.858 5.632 192.802 5.632C194.258 5.632 195.434 6 196.33 6.736C197.226 7.472 197.706 8.48 197.77 9.76H195.586C195.538 9.072 195.258 8.52 194.746 8.104C194.25 7.688 193.578 7.48 192.73 7.48C191.946 7.48 191.322 7.648 190.858 7.984C190.394 8.32 190.162 8.76 190.162 9.304C190.162 9.736 190.298 10.096 190.57 10.384C190.858 10.656 191.21 10.88 191.626 11.056C192.058 11.216 192.65 11.4 193.402 11.608C194.346 11.864 195.114 12.12 195.706 12.376C196.298 12.616 196.802 12.984 197.218 13.48C197.65 13.976 197.874 14.624 197.89 15.424C197.89 16.144 197.69 16.792 197.29 17.368C196.89 17.944 196.322 18.4 195.586 18.736C194.866 19.056 194.034 19.216 193.09 19.216ZM205.637 7.648V15.4C205.637 16.04 205.773 16.496 206.045 16.768C206.317 17.024 206.789 17.152 207.461 17.152H209.069V19H207.101C205.885 19 204.973 18.72 204.365 18.16C203.757 17.6 203.453 16.68 203.453 15.4V7.648H201.749V5.848H203.453V2.536H205.637V5.848H209.069V7.648H205.637ZM224.298 8.272C224.73 7.52 225.37 6.896 226.218 6.4C227.082 5.888 228.082 5.632 229.218 5.632C230.386 5.632 231.442 5.912 232.386 6.472C233.346 7.032 234.098 7.824 234.642 8.848C235.186 9.856 235.458 11.032 235.458 12.376C235.458 13.704 235.186 14.888 234.642 15.928C234.098 16.968 233.346 17.776 232.386 18.352C231.442 18.928 230.386 19.216 229.218 19.216C228.098 19.216 227.106 18.968 226.242 18.472C225.394 17.96 224.746 17.328 224.298 16.576V25.24H222.114V5.848H224.298V8.272ZM233.226 12.376C233.226 11.384 233.026 10.52 232.626 9.784C232.226 9.048 231.682 8.488 230.994 8.104C230.322 7.72 229.578 7.528 228.762 7.528C227.962 7.528 227.218 7.728 226.53 8.128C225.858 8.512 225.314 9.08 224.898 9.832C224.498 10.568 224.298 11.424 224.298 12.4C224.298 13.392 224.498 14.264 224.898 15.016C225.314 15.752 225.858 16.32 226.53 16.72C227.218 17.104 227.962 17.296 228.762 17.296C229.578 17.296 230.322 17.104 230.994 16.72C231.682 16.32 232.226 15.752 232.626 15.016C233.026 14.264 233.226 13.384 233.226 12.376ZM239.516 12.376C239.516 11.032 239.788 9.856 240.332 8.848C240.876 7.824 241.62 7.032 242.564 6.472C243.524 5.912 244.588 5.632 245.756 5.632C246.908 5.632 247.908 5.88 248.756 6.376C249.604 6.872 250.236 7.496 250.652 8.248V5.848H252.86V19H250.652V16.552C250.22 17.32 249.572 17.96 248.708 18.472C247.86 18.968 246.868 19.216 245.732 19.216C244.564 19.216 243.508 18.928 242.564 18.352C241.62 17.776 240.876 16.968 240.332 15.928C239.788 14.888 239.516 13.704 239.516 12.376ZM250.652 12.4C250.652 11.408 250.452 10.544 250.052 9.808C249.652 9.072 249.108 8.512 248.42 8.128C247.748 7.728 247.004 7.528 246.188 7.528C245.372 7.528 244.628 7.72 243.956 8.104C243.284 8.488 242.748 9.048 242.348 9.784C241.948 10.52 241.748 11.384 241.748 12.376C241.748 13.384 241.948 14.264 242.348 15.016C242.748 15.752 243.284 16.32 243.956 16.72C244.628 17.104 245.372 17.296 246.188 17.296C247.004 17.296 247.748 17.104 248.42 16.72C249.108 16.32 249.652 15.752 250.052 15.016C250.452 14.264 250.652 13.392 250.652 12.4ZM260.735 7.984C261.119 7.232 261.663 6.648 262.367 6.232C263.087 5.816 263.959 5.608 264.983 5.608V7.864H264.407C261.959 7.864 260.735 9.192 260.735 11.848V19H258.551V5.848H260.735V7.984ZM272.168 7.648V15.4C272.168 16.04 272.304 16.496 272.576 16.768C272.848 17.024 273.32 17.152 273.992 17.152H275.6V19H273.632C272.416 19 271.504 18.72 270.896 18.16C270.288 17.6 269.984 16.68 269.984 15.4V7.648H268.28V5.848H269.984V2.536H272.168V5.848H275.6V7.648H272.168ZM286.654 5.608C288.254 5.608 289.55 6.096 290.542 7.072C291.534 8.032 292.03 9.424 292.03 11.248V19H289.87V11.56C289.87 10.248 289.542 9.248 288.886 8.56C288.23 7.856 287.334 7.504 286.198 7.504C285.046 7.504 284.126 7.864 283.438 8.584C282.766 9.304 282.43 10.352 282.43 11.728V19H280.246V5.848H282.43V7.72C282.862 7.048 283.446 6.528 284.182 6.16C284.934 5.792 285.758 5.608 286.654 5.608ZM309.598 11.92C309.598 12.336 309.574 12.776 309.526 13.24H299.014C299.094 14.536 299.534 15.552 300.334 16.288C301.15 17.008 302.134 17.368 303.286 17.368C304.23 17.368 305.014 17.152 305.638 16.72C306.278 16.272 306.726 15.68 306.982 14.944H309.334C308.982 16.208 308.278 17.24 307.222 18.04C306.166 18.824 304.854 19.216 303.286 19.216C302.038 19.216 300.918 18.936 299.926 18.376C298.95 17.816 298.182 17.024 297.622 16C297.062 14.96 296.782 13.76 296.782 12.4C296.782 11.04 297.054 9.848 297.598 8.824C298.142 7.8 298.902 7.016 299.878 6.472C300.87 5.912 302.006 5.632 303.286 5.632C304.534 5.632 305.638 5.904 306.598 6.448C307.558 6.992 308.294 7.744 308.806 8.704C309.334 9.648 309.598 10.72 309.598 11.92ZM307.342 11.464C307.342 10.632 307.158 9.92 306.79 9.328C306.422 8.72 305.918 8.264 305.278 7.96C304.654 7.64 303.958 7.48 303.19 7.48C302.086 7.48 301.142 7.832 300.358 8.536C299.59 9.24 299.15 10.216 299.038 11.464H307.342ZM316.665 7.984C317.049 7.232 317.593 6.648 318.297 6.232C319.017 5.816 319.889 5.608 320.913 5.608V7.864H320.337C317.889 7.864 316.665 9.192 316.665 11.848V19H314.481V5.848H316.665V7.984ZM326.13 19.144C325.714 19.144 325.362 19 325.074 18.712C324.786 18.424 324.642 18.072 324.642 17.656C324.642 17.24 324.786 16.888 325.074 16.6C325.362 16.312 325.714 16.168 326.13 16.168C326.53 16.168 326.866 16.312 327.138 16.6C327.426 16.888 327.57 17.24 327.57 17.656C327.57 18.072 327.426 18.424 327.138 18.712C326.866 19 326.53 19.144 326.13 19.144Z" fill="#0A3E66"/>
</svg>
